# xmcd
#
# Track frame offsets: 
#        150
#        17563
#        35554
#        57852
#        76955
#        94343
#        117416
#        137612
#        161791
#        188952
#        216082
#        238356
#
# Disc length: 3540 seconds
#
# Revision: 1
# Processed by: cddbd v1.5.2PL0 Copyright (c) Steve Scherf et al.
# Submitted via: ExactAudioCopyFreeDBPlugin 1.0
#
DISCID=a80dd20c
DTITLE=Cẩm Ly - Album Vol.6 "Người nhớ không người - Em sẽ là người ra
DTITLE=đi"
DYEAR=2004
DGENRE=Vietnamese
TTITLE0=Đã xa cuộc tình
TTITLE1=Vì em là con gái
TTITLE2=Ngày xưa hai đứa
TTITLE3=Em sẽ là người ra đi
TTITLE4=Con gái khi yêu
TTITLE5=Người nhớ không người
TTITLE6=Cẩm Ly and Vân Quang Long - Nợ duyên
TTITLE7=Cẩm Ly and Đàm Vĩnh Hưng - Phượng buồn
TTITLE8=Cẩm Ly and Đan Trường - Chim trắng mồ côi
TTITLE9=Chim trắng mồ côi
TTITLE10=Ngày xưa hai đứa (karaoke version)
TTITLE11=Chim trắng mồ côi (karaoke version)
EXTD=
EXTT0=
EXTT1=
EXTT2=
EXTT3=
EXTT4=
EXTT5=
EXTT6=
EXTT7=
EXTT8=
EXTT9=
EXTT10=
EXTT11=
PLAYORDER=
